<mxfile host="65bd71144e">
    <diagram id="feLj19iZiXinHgvYgo6u" name="Page-1">
        <mxGraphModel dx="2603" dy="830" grid="1" gridSize="10" guides="1" tooltips="1" connect="1" arrows="1" fold="1" page="1" pageScale="1" pageWidth="850" pageHeight="1100" math="0" shadow="0">
            <root>
                <mxCell id="0"/>
                <mxCell id="1" parent="0"/>
                <mxCell id="5" value="View" style="swimlane;whiteSpace=wrap;html=1;" parent="1" vertex="1">
                    <mxGeometry x="100" y="80" width="210" height="370" as="geometry">
                        <mxRectangle x="280" y="310" width="140" height="30" as="alternateBounds"/>
                    </mxGeometry>
                </mxCell>
                <mxCell id="6" value="component&lt;br&gt;&lt;b&gt;:Main Menu&lt;/b&gt;" style="rounded=0;whiteSpace=wrap;html=1;" parent="5" vertex="1">
                    <mxGeometry x="50" y="45" width="120" height="60" as="geometry"/>
                </mxCell>
                <mxCell id="7" value="component&lt;br&gt;&lt;b&gt;:Game Board&lt;/b&gt;" style="rounded=0;whiteSpace=wrap;html=1;" parent="5" vertex="1">
                    <mxGeometry x="50" y="125" width="120" height="60" as="geometry"/>
                </mxCell>
                <mxCell id="8" value="component&lt;br&gt;&lt;b&gt;:Combat&lt;/b&gt;" style="rounded=0;whiteSpace=wrap;html=1;" parent="5" vertex="1">
                    <mxGeometry x="50" y="205" width="120" height="60" as="geometry"/>
                </mxCell>
                <mxCell id="9" value="component&lt;br&gt;&lt;b&gt;:GameEnd&lt;/b&gt;" style="rounded=0;whiteSpace=wrap;html=1;" parent="5" vertex="1">
                    <mxGeometry x="50" y="285" width="120" height="60" as="geometry"/>
                </mxCell>
                <mxCell id="100" value="" style="endArrow=none;html=1;entryX=0;entryY=0.5;entryDx=0;entryDy=0;" parent="5" target="9" edge="1">
                    <mxGeometry width="50" height="50" relative="1" as="geometry">
                        <mxPoint x="-20" y="314.65999999999997" as="sourcePoint"/>
                        <mxPoint x="30" y="314.65999999999997" as="targetPoint"/>
                    </mxGeometry>
                </mxCell>
                <mxCell id="101" value="" style="endArrow=none;html=1;entryX=0.013;entryY=0.497;entryDx=0;entryDy=0;entryPerimeter=0;" parent="5" target="8" edge="1">
                    <mxGeometry width="50" height="50" relative="1" as="geometry">
                        <mxPoint x="-20" y="234.65999999999997" as="sourcePoint"/>
                        <mxPoint x="30" y="234.65999999999997" as="targetPoint"/>
                    </mxGeometry>
                </mxCell>
                <mxCell id="102" value="" style="endArrow=none;html=1;entryX=0;entryY=0.5;entryDx=0;entryDy=0;" parent="5" target="7" edge="1">
                    <mxGeometry width="50" height="50" relative="1" as="geometry">
                        <mxPoint x="-20" y="154.66000000000003" as="sourcePoint"/>
                        <mxPoint x="30" y="154.66000000000003" as="targetPoint"/>
                    </mxGeometry>
                </mxCell>
                <mxCell id="103" value="" style="endArrow=none;html=1;entryX=0.002;entryY=0.581;entryDx=0;entryDy=0;entryPerimeter=0;" parent="5" target="6" edge="1">
                    <mxGeometry width="50" height="50" relative="1" as="geometry">
                        <mxPoint x="-20" y="80" as="sourcePoint"/>
                        <mxPoint x="30" y="80" as="targetPoint"/>
                    </mxGeometry>
                </mxCell>
                <mxCell id="11" value="Model" style="swimlane;whiteSpace=wrap;html=1;" parent="1" vertex="1">
                    <mxGeometry x="480" y="80" width="710" height="330" as="geometry">
                        <mxRectangle x="480" y="80" width="70" height="30" as="alternateBounds"/>
                    </mxGeometry>
                </mxCell>
                <mxCell id="39" style="edgeStyle=none;html=1;endArrow=circle;endFill=0;" parent="11" source="15" edge="1">
                    <mxGeometry relative="1" as="geometry">
                        <mxPoint x="493" y="160" as="targetPoint"/>
                    </mxGeometry>
                </mxCell>
                <mxCell id="15" value="component&lt;br&gt;:&lt;b&gt;Player&lt;/b&gt;" style="rounded=0;whiteSpace=wrap;html=1;" parent="11" vertex="1">
                    <mxGeometry x="533" y="130" width="120" height="60" as="geometry"/>
                </mxCell>
                <mxCell id="28" value="component&lt;br&gt;:&lt;b&gt;Game&lt;/b&gt;" style="rounded=0;whiteSpace=wrap;html=1;" parent="11" vertex="1">
                    <mxGeometry x="60" y="100" width="143" height="120" as="geometry"/>
                </mxCell>
                <mxCell id="37" style="edgeStyle=none;html=1;endArrow=halfCircle;endFill=0;" parent="11" edge="1">
                    <mxGeometry relative="1" as="geometry">
                        <mxPoint x="498" y="160" as="targetPoint"/>
                        <mxPoint x="453" y="160" as="sourcePoint"/>
                    </mxGeometry>
                </mxCell>
                <mxCell id="123" value="" style="endArrow=halfCircle;html=1;endFill=0;" parent="11" edge="1">
                    <mxGeometry width="50" height="50" relative="1" as="geometry">
                        <mxPoint x="203" y="180" as="sourcePoint"/>
                        <mxPoint x="263" y="180" as="targetPoint"/>
                    </mxGeometry>
                </mxCell>
                <mxCell id="132" value="&lt;font style=&quot;font-size: 10px;&quot;&gt;EncounterResult&lt;/font&gt;" style="text;html=1;align=center;verticalAlign=middle;whiteSpace=wrap;rounded=0;" parent="11" vertex="1">
                    <mxGeometry x="203" y="149" width="130" height="30" as="geometry"/>
                </mxCell>
                <mxCell id="133" value="" style="endArrow=none;html=1;" parent="11" edge="1">
                    <mxGeometry width="50" height="50" relative="1" as="geometry">
                        <mxPoint x="513" y="160" as="sourcePoint"/>
                        <mxPoint x="533" y="90" as="targetPoint"/>
                        <Array as="points">
                            <mxPoint x="513" y="90"/>
                        </Array>
                    </mxGeometry>
                </mxCell>
                <mxCell id="134" value="&lt;font style=&quot;font-size: 10px;&quot;&gt;Combat&lt;/font&gt;&lt;div&gt;&lt;font style=&quot;font-size: 10px;&quot;&gt;Attributes&lt;/font&gt;&lt;/div&gt;" style="text;html=1;align=center;verticalAlign=middle;whiteSpace=wrap;rounded=0;" parent="11" vertex="1">
                    <mxGeometry x="463" y="170" width="60" height="30" as="geometry"/>
                </mxCell>
                <mxCell id="16" value="component&lt;br&gt;:&lt;b&gt;Enemy&lt;/b&gt;" style="rounded=0;whiteSpace=wrap;html=1;" parent="11" vertex="1">
                    <mxGeometry x="533" y="60" width="120" height="60" as="geometry"/>
                </mxCell>
                <mxCell id="30" value="component&lt;br&gt;:&lt;b&gt;Combat&lt;/b&gt;" style="rounded=0;whiteSpace=wrap;html=1;" parent="11" vertex="1">
                    <mxGeometry x="323" y="130" width="130" height="60" as="geometry"/>
                </mxCell>
                <mxCell id="152" style="edgeStyle=none;html=1;endArrow=circle;endFill=0;" parent="11" edge="1">
                    <mxGeometry relative="1" as="geometry">
                        <mxPoint x="263" y="180" as="targetPoint"/>
                        <mxPoint x="323" y="180" as="sourcePoint"/>
                    </mxGeometry>
                </mxCell>
                <mxCell id="156" value="" style="endArrow=halfCircle;html=1;endFill=0;exitX=0.001;exitY=0.167;exitDx=0;exitDy=0;exitPerimeter=0;" parent="11" source="30" edge="1">
                    <mxGeometry width="50" height="50" relative="1" as="geometry">
                        <mxPoint x="273" y="70" as="sourcePoint"/>
                        <mxPoint x="273" y="140" as="targetPoint"/>
                    </mxGeometry>
                </mxCell>
                <mxCell id="158" style="edgeStyle=none;html=1;endArrow=circle;endFill=0;exitX=1;exitY=0.337;exitDx=0;exitDy=0;exitPerimeter=0;" parent="11" source="28" edge="1">
                    <mxGeometry relative="1" as="geometry">
                        <mxPoint x="273" y="140" as="targetPoint"/>
                        <mxPoint x="223" y="140" as="sourcePoint"/>
                    </mxGeometry>
                </mxCell>
                <mxCell id="159" value="&lt;font style=&quot;font-size: 10px;&quot;&gt;CombatEncounter&lt;/font&gt;" style="text;html=1;align=center;verticalAlign=middle;whiteSpace=wrap;rounded=0;" parent="11" vertex="1">
                    <mxGeometry x="203" y="110" width="130" height="30" as="geometry"/>
                </mxCell>
                <mxCell id="162" value="component&lt;br&gt;:&lt;b&gt;Challenge&lt;/b&gt;" style="rounded=0;whiteSpace=wrap;html=1;" parent="11" vertex="1">
                    <mxGeometry x="320" y="229" width="130" height="60" as="geometry"/>
                </mxCell>
                <mxCell id="164" value="" style="endArrow=none;html=1;" parent="11" edge="1">
                    <mxGeometry width="50" height="50" relative="1" as="geometry">
                        <mxPoint x="290" y="180" as="sourcePoint"/>
                        <mxPoint x="320" y="250" as="targetPoint"/>
                        <Array as="points">
                            <mxPoint x="290" y="250"/>
                        </Array>
                    </mxGeometry>
                </mxCell>
                <mxCell id="165" style="edgeStyle=none;html=1;endArrow=halfCircle;endFill=0;" parent="11" edge="1">
                    <mxGeometry relative="1" as="geometry">
                        <mxPoint x="495" y="258.71" as="targetPoint"/>
                        <mxPoint x="450" y="258.71" as="sourcePoint"/>
                    </mxGeometry>
                </mxCell>
                <mxCell id="166" style="edgeStyle=none;html=1;endArrow=circle;endFill=0;exitX=0.25;exitY=1;exitDx=0;exitDy=0;" parent="11" source="15" edge="1">
                    <mxGeometry relative="1" as="geometry">
                        <mxPoint x="493" y="258.71" as="targetPoint"/>
                        <mxPoint x="533" y="258.71" as="sourcePoint"/>
                        <Array as="points">
                            <mxPoint x="562" y="259"/>
                        </Array>
                    </mxGeometry>
                </mxCell>
                <mxCell id="167" value="&lt;span style=&quot;font-size: 10px;&quot;&gt;Player Stats&lt;/span&gt;" style="text;html=1;align=center;verticalAlign=middle;whiteSpace=wrap;rounded=0;" parent="11" vertex="1">
                    <mxGeometry x="473" y="259" width="60" height="30" as="geometry"/>
                </mxCell>
                <mxCell id="80" value="" style="endArrow=none;html=1;" parent="1" edge="1">
                    <mxGeometry width="50" height="50" relative="1" as="geometry">
                        <mxPoint x="360" y="160" as="sourcePoint"/>
                        <mxPoint x="400" y="160" as="targetPoint"/>
                    </mxGeometry>
                </mxCell>
                <mxCell id="81" value="" style="endArrow=halfCircle;html=1;endFill=0;" parent="1" edge="1">
                    <mxGeometry width="50" height="50" relative="1" as="geometry">
                        <mxPoint x="270" y="160" as="sourcePoint"/>
                        <mxPoint x="360" y="160" as="targetPoint"/>
                    </mxGeometry>
                </mxCell>
                <mxCell id="83" value="" style="endArrow=halfCircle;html=1;endFill=0;" parent="1" edge="1">
                    <mxGeometry width="50" height="50" relative="1" as="geometry">
                        <mxPoint x="270" y="240" as="sourcePoint"/>
                        <mxPoint x="360" y="240" as="targetPoint"/>
                    </mxGeometry>
                </mxCell>
                <mxCell id="84" value="" style="endArrow=none;html=1;" parent="1" edge="1">
                    <mxGeometry width="50" height="50" relative="1" as="geometry">
                        <mxPoint x="360" y="314.71000000000004" as="sourcePoint"/>
                        <mxPoint x="400" y="315" as="targetPoint"/>
                    </mxGeometry>
                </mxCell>
                <mxCell id="85" value="" style="endArrow=halfCircle;html=1;endFill=0;" parent="1" edge="1">
                    <mxGeometry width="50" height="50" relative="1" as="geometry">
                        <mxPoint x="270" y="314.71000000000004" as="sourcePoint"/>
                        <mxPoint x="360" y="314.71000000000004" as="targetPoint"/>
                    </mxGeometry>
                </mxCell>
                <mxCell id="86" value="" style="endArrow=none;html=1;" parent="1" edge="1">
                    <mxGeometry width="50" height="50" relative="1" as="geometry">
                        <mxPoint x="360" y="400" as="sourcePoint"/>
                        <mxPoint x="400" y="400" as="targetPoint"/>
                    </mxGeometry>
                </mxCell>
                <mxCell id="87" value="" style="endArrow=halfCircle;html=1;endFill=0;" parent="1" edge="1">
                    <mxGeometry width="50" height="50" relative="1" as="geometry">
                        <mxPoint x="270" y="400" as="sourcePoint"/>
                        <mxPoint x="360" y="400" as="targetPoint"/>
                    </mxGeometry>
                </mxCell>
                <mxCell id="90" value="" style="endArrow=none;html=1;" parent="1" edge="1">
                    <mxGeometry width="50" height="50" relative="1" as="geometry">
                        <mxPoint x="400" y="400" as="sourcePoint"/>
                        <mxPoint x="400" y="160" as="targetPoint"/>
                    </mxGeometry>
                </mxCell>
                <mxCell id="92" value="" style="endArrow=classic;html=1;" parent="1" edge="1">
                    <mxGeometry width="50" height="50" relative="1" as="geometry">
                        <mxPoint x="360" y="240" as="sourcePoint"/>
                        <mxPoint x="430" y="240" as="targetPoint"/>
                    </mxGeometry>
                </mxCell>
                <mxCell id="105" value="" style="endArrow=circle;html=1;endFill=0;" parent="1" edge="1">
                    <mxGeometry width="50" height="50" relative="1" as="geometry">
                        <mxPoint x="80" y="160" as="sourcePoint"/>
                        <mxPoint x="80" y="580" as="targetPoint"/>
                    </mxGeometry>
                </mxCell>
                <mxCell id="23" value="Controller" style="swimlane;whiteSpace=wrap;html=1;" parent="1" vertex="1">
                    <mxGeometry x="150" y="540" width="180" height="140" as="geometry"/>
                </mxCell>
                <mxCell id="110" style="edgeStyle=none;html=1;endArrow=halfCircle;endFill=0;" parent="23" edge="1">
                    <mxGeometry relative="1" as="geometry">
                        <mxPoint x="-40" y="80" as="targetPoint"/>
                        <mxPoint x="40" y="80" as="sourcePoint"/>
                    </mxGeometry>
                </mxCell>
                <mxCell id="117" style="edgeStyle=none;html=1;endArrow=circle;endFill=0;" parent="23" source="25" edge="1">
                    <mxGeometry relative="1" as="geometry">
                        <mxPoint x="270" y="80" as="targetPoint"/>
                    </mxGeometry>
                </mxCell>
                <mxCell id="25" value="component&lt;br&gt;:&lt;b&gt;Inp&lt;/b&gt;&lt;b style=&quot;background-color: transparent;&quot;&gt;utManager&lt;/b&gt;" style="rounded=0;whiteSpace=wrap;html=1;" parent="23" vertex="1">
                    <mxGeometry x="30" y="50" width="120" height="60" as="geometry"/>
                </mxCell>
                <mxCell id="111" value="" style="endArrow=classic;html=1;" parent="1" edge="1">
                    <mxGeometry width="50" height="50" relative="1" as="geometry">
                        <mxPoint x="110" y="620" as="sourcePoint"/>
                        <mxPoint x="80" y="580" as="targetPoint"/>
                        <Array as="points">
                            <mxPoint x="80" y="620"/>
                        </Array>
                    </mxGeometry>
                </mxCell>
                <mxCell id="118" value="" style="endArrow=none;html=1;startArrow=classic;startFill=1;endFill=0;" parent="1" edge="1">
                    <mxGeometry width="50" height="50" relative="1" as="geometry">
                        <mxPoint x="420" y="620" as="sourcePoint"/>
                        <mxPoint x="580" y="590" as="targetPoint"/>
                        <Array as="points">
                            <mxPoint x="580" y="620"/>
                        </Array>
                    </mxGeometry>
                </mxCell>
                <mxCell id="129" value="Device Input" style="text;html=1;align=center;verticalAlign=middle;whiteSpace=wrap;rounded=0;" parent="1" vertex="1">
                    <mxGeometry x="-20" y="535" width="120" height="30" as="geometry"/>
                </mxCell>
                <mxCell id="140" value="&lt;font style=&quot;font-size: 10px;&quot;&gt;AudioVisuals&lt;/font&gt;" style="text;html=1;align=center;verticalAlign=middle;whiteSpace=wrap;rounded=0;" parent="1" vertex="1">
                    <mxGeometry x="370" y="210" width="130" height="30" as="geometry"/>
                </mxCell>
                <mxCell id="91" style="edgeStyle=none;html=1;endArrow=circle;endFill=0;" parent="1" source="28" edge="1">
                    <mxGeometry relative="1" as="geometry">
                        <mxPoint x="430" y="240" as="targetPoint"/>
                    </mxGeometry>
                </mxCell>
                <mxCell id="130" value="Game Action" style="text;html=1;align=center;verticalAlign=middle;whiteSpace=wrap;rounded=0;" parent="1" vertex="1">
                    <mxGeometry x="381" y="590" width="89" height="30" as="geometry"/>
                </mxCell>
                <mxCell id="143" value="" style="endArrow=halfCircle;html=1;endFill=0;exitX=0.278;exitY=1.008;exitDx=0;exitDy=0;exitPerimeter=0;" parent="1" source="28" edge="1">
                    <mxGeometry width="50" height="50" relative="1" as="geometry">
                        <mxPoint x="580" y="310" as="sourcePoint"/>
                        <mxPoint x="581" y="590" as="targetPoint"/>
                    </mxGeometry>
                </mxCell>
            </root>
        </mxGraphModel>
    </diagram>
</mxfile>